<?xml version="1.0" standalone="no"?>
<svg viewBox="0 0 200 200" xmlns="http://www.w3.org/2000/svg">
  <path fill="#FF0066" d="M53.7,-73.4C69.2,-62.6,81.3,-46.5,85.8,-28.8C90.4,-11.1,87.4,8.2,81.2,26.1C75,44.1,65.6,60.8,51.6,71.9C37.5,83,18.8,88.5,-0.3,88.8C-19.3,89.2,-38.5,84.4,-52.9,73.4C-67.3,62.4,-76.9,45.2,-81.5,27.3C-86.1,9.5,-85.7,-9.1,-80,-25.7C-74.2,-42.3,-63.1,-56.9,-48.8,-68.1C-34.6,-79.4,-17.3,-87.3,0.9,-88.5C19.1,-89.8,38.1,-84.2,53.7,-73.4Z" transform="translate(100 100)" />
</svg>
